<svg width="18" height="12" viewBox="0 0 18 12" fill="none" xmlns="http://www.w3.org/2000/svg">
<path d="M9.01115 12H8.99316C8.93741 12 3.35931 11.9897 1.95198 11.6257C1.17809 11.4272 0.573728 10.8513 0.365686 10.1142C0.112615 8.75452 -0.00959169 7.37569 0.000587047 5.99486C-0.00595133 4.61177 0.119562 3.23098 0.375577 1.86954C0.589337 1.13175 1.19105 0.553197 1.96367 0.342564C3.33234 0 8.75666 0 8.98687 0H9.00575C9.0624 0 14.6549 0.0102769 16.0478 0.374251C16.8201 0.573802 17.4232 1.14853 17.6323 1.8841C17.8935 3.24882 18.016 4.63432 17.9983 6.02141C18.0046 7.40282 17.8788 8.78191 17.6224 10.1416C17.4117 10.8778 16.807 11.4524 16.0334 11.6514C14.6666 11.9966 9.24136 12 9.01115 12ZM7.21263 3.42992L7.20814 8.56837L11.8951 5.99914L7.21263 3.42992Z" fill="#FBFAFF"/>
</svg>
