<svg width="12" height="12" viewBox="0 0 12 12" fill="none" xmlns="http://www.w3.org/2000/svg">
<path d="M1.52045 2.9671C2.32606 2.9671 2.97914 2.30289 2.97914 1.48355C2.97914 0.664208 2.32606 0 1.52045 0C0.714843 0 0.0617676 0.664208 0.0617676 1.48355C0.0617676 2.30289 0.714843 2.9671 1.52045 2.9671Z" fill="white"/>
<path d="M2.7359 3.95801H0.30476C0.170561 3.95801 0.0616455 4.06878 0.0616455 4.20527V11.623C0.0616455 11.7595 0.170561 11.8703 0.30476 11.8703H2.7359C2.8701 11.8703 2.97902 11.7595 2.97902 11.623V4.20527C2.97902 4.06878 2.8701 3.95801 2.7359 3.95801Z" fill="white"/>
<path d="M9.98054 3.5464C8.94146 3.18442 7.64178 3.50239 6.86235 4.07257C6.83561 3.96625 6.74031 3.88712 6.62702 3.88712H4.19587C4.06167 3.88712 3.95276 3.9979 3.95276 4.13438V11.5521C3.95276 11.6886 4.06167 11.7994 4.19587 11.7994H6.62702C6.76122 11.7994 6.87013 11.6886 6.87013 11.5521V6.22124C7.263 5.87706 7.76917 5.76728 8.18343 5.94629C8.58506 6.11888 8.81505 6.5402 8.81505 7.10148V11.5521C8.81505 11.6886 8.92396 11.7994 9.05816 11.7994H11.4893C11.6235 11.7994 11.7324 11.6886 11.7324 11.5521V6.6035C11.7047 4.57153 10.7648 3.81937 9.98054 3.5464Z" fill="white"/>
</svg>
