<svg width="14" height="12" viewBox="0 0 14 12" fill="none" xmlns="http://www.w3.org/2000/svg">
<path d="M0.831709 4.88516L8.91263 1.55568C9.71032 1.20886 12.4155 0.0990298 12.4155 0.0990298C12.4155 0.0990298 13.6641 -0.386519 13.56 0.792672C13.5254 1.27822 13.2479 2.97764 12.9704 4.81579L12.1034 10.2609C12.1034 10.2609 12.034 11.0586 11.4444 11.1973C10.8548 11.336 9.88373 10.7117 9.71032 10.573C9.57159 10.469 7.10917 8.90828 6.20743 8.14527C5.96466 7.93718 5.6872 7.521 6.24211 7.03545C7.49067 5.89094 8.982 4.46897 9.88373 3.56724C10.2999 3.15105 10.7161 2.17995 8.982 3.35915L4.09182 6.65394C4.09182 6.65394 3.53691 7.00076 2.49645 6.68863C1.45599 6.37649 0.242113 5.9603 0.242113 5.9603C0.242113 5.9603 -0.590257 5.44007 0.831709 4.88516Z" fill="#FEFEFE"/>
</svg>
