<svg width="13" height="11" viewBox="0 0 13 11" fill="none" xmlns="http://www.w3.org/2000/svg">
<path d="M12.4177 1.26468C12.3379 1.17289 12.2092 1.14981 12.1036 1.20642C12.0379 1.2416 11.9144 1.28776 11.7678 1.33338C11.9528 1.07616 12.1015 0.788169 12.1671 0.529303C12.1955 0.417733 12.154 0.300117 12.0636 0.233614C11.9733 0.167661 11.853 0.167661 11.7626 0.233614C11.6202 0.33749 10.933 0.649668 10.4985 0.750795C9.51656 -0.148913 8.37385 -0.242346 7.18595 0.483136C6.22029 1.07287 6.01014 2.27211 6.05112 3.00309C3.84082 2.7805 2.46694 1.55927 1.69357 0.54854C1.63946 0.47764 1.55224 0.440267 1.47028 0.445763C1.38412 0.452358 1.30636 0.502373 1.26223 0.579867C0.89656 1.22566 0.795161 1.9396 0.970114 2.64474C1.06573 3.02947 1.23281 3.36858 1.42667 3.64338C1.33368 3.59557 1.24384 3.53566 1.15925 3.46421C1.0815 3.39716 0.972741 3.38452 0.880799 3.42904C0.789382 3.47465 0.731064 3.57138 0.731064 3.67746C0.731064 4.88825 1.45505 5.69617 2.13122 6.11827C2.02194 6.10453 1.90793 6.07925 1.79287 6.04242C1.6941 6.01109 1.58692 6.04242 1.51862 6.12376C1.45032 6.20456 1.43403 6.31997 1.47659 6.41835C1.85644 7.29718 2.57622 7.90175 3.46675 8.12104C2.68918 8.59865 1.64839 8.83278 0.695338 8.71791C0.571872 8.69978 0.454186 8.78167 0.415307 8.90588C0.376429 9.03009 0.427391 9.16639 0.536146 9.23015C1.98201 10.0793 3.28917 10.3827 4.41875 10.3827C6.06268 10.3827 7.33148 9.74073 8.1038 9.20377C10.1859 7.7583 11.4836 5.16305 11.3029 2.84096C11.6365 2.58319 12.1356 2.10723 12.4451 1.59554C12.5092 1.49222 12.4976 1.35591 12.4177 1.26468Z" fill="white"/>
</svg>
