<svg width="8" height="13" viewBox="0 0 8 13" fill="none" xmlns="http://www.w3.org/2000/svg">
<path d="M5.19778 2.02078H6.7792C6.92469 2.02078 7.04277 1.90762 7.04277 1.76819V0.252598C7.04277 0.113164 6.92469 0 6.7792 0H5.19778C3.59949 0 2.2985 1.24632 2.2985 2.77858V4.54676H0.453512C0.308021 4.54676 0.189941 4.65993 0.189941 4.79936V6.31495C0.189941 6.45438 0.308021 6.56755 0.453512 6.56755H2.2985V11.8721C2.2985 12.0115 2.41658 12.1247 2.56207 12.1247H4.1435C4.28899 12.1247 4.40707 12.0115 4.40707 11.8721V6.56755H6.25206C6.3654 6.56755 6.46608 6.49783 6.50245 6.39477L7.02959 4.87918C7.05648 4.80239 7.04277 4.71752 6.99322 4.65134C6.94314 4.58566 6.86407 4.54676 6.7792 4.54676H4.40707V2.77858C4.40707 2.36078 4.76183 2.02078 5.19778 2.02078Z" fill="white"/>
</svg>
