<svg width="18" height="13" viewBox="0 0 18 13" fill="none" xmlns="http://www.w3.org/2000/svg">
<path d="M15.0519 9.90297C14.3678 10.8236 13.3828 11.4736 12.2693 11.7393C12.7269 12.3254 13.2785 12.988 13.2834 12.9945C15.1446 13.034 16.9069 12.1556 18 10.6437C17.944 7.50938 17.1854 4.42794 15.7804 1.62797C14.5435 0.654067 13.0378 0.0856858 11.4678 0H11.45L11.2342 0.247452C12.6365 0.625391 13.9443 1.29423 15.073 2.21079C13.6368 1.41863 12.0608 0.914357 10.4327 0.726076C9.39789 0.61076 8.35301 0.621145 7.32071 0.757008C7.24773 0.758458 7.175 0.766082 7.1033 0.779799H7.05787C5.84804 0.919568 4.66762 1.24918 3.55976 1.75659C3.00487 2.01218 2.66414 2.19777 2.64954 2.20428C2.63494 2.21079 2.64954 2.20428 2.64954 2.19288C3.84676 1.24807 5.22797 0.565401 6.70416 0.188845L6.54191 0.00325571H6.53218C4.96224 0.0891502 3.45662 0.657508 2.21958 1.63123C0.809474 4.42929 0.0505598 7.51193 0 10.647C1.0795 12.1689 2.84424 13.0506 4.70525 12.9978C4.70525 12.9978 5.2861 12.288 5.73878 11.7133C4.65333 11.4396 3.6969 10.7948 3.03407 9.88995C3.04543 9.89809 3.20606 10.0072 3.46566 10.1504C3.48309 10.171 3.50466 10.1876 3.52893 10.1993C3.54949 10.2135 3.5712 10.2261 3.59383 10.2367C3.61949 10.2484 3.64394 10.2626 3.66685 10.279C4.02884 10.4792 4.40459 10.6533 4.79124 10.8C5.52635 11.092 6.28673 11.3155 7.06274 11.4675C7.74215 11.596 8.43193 11.6614 9.12331 11.6628C9.77155 11.6627 10.4184 11.6028 11.0557 11.4837C11.8232 11.3485 12.5728 11.1257 13.2899 10.8195C13.9093 10.5805 14.5003 10.2731 15.0519 9.90297ZM11.7453 9.20783C11.0394 9.26959 10.3681 8.89023 10.0548 8.25251C9.74154 7.61479 9.85057 6.84952 10.3294 6.32541C10.8081 5.80129 11.5585 5.62583 12.2189 5.88356C12.8792 6.14128 13.3142 6.77934 13.3142 7.49031C13.35 8.39857 12.6486 9.16559 11.7436 9.20783H11.7453ZM6.11844 9.20783C5.23069 9.13019 4.54942 8.38444 4.54942 7.49031C4.54942 6.59618 5.23069 5.85044 6.11844 5.7728C6.52738 5.77405 6.91838 5.94143 7.20227 6.23677C7.5244 6.57226 7.69963 7.02295 7.68902 7.48868C7.72658 8.39851 7.02508 9.16734 6.11844 9.20783Z" fill="#FBFAFF"/>
</svg>
