<svg id="Layer_1" data-name="Layer 1" xmlns="http://www.w3.org/2000/svg" xmlns:xlink="http://www.w3.org/1999/xlink" viewBox="0 0 710.1 336.35"><defs><style>.cls-1{fill:url(#linear-gradient);}.cls-2{fill:#00ffd9;}.cls-3{fill:url(#linear-gradient-2);}</style><linearGradient id="linear-gradient" x1="5.42" y1="562.62" x2="6.4" y2="562.62" gradientTransform="matrix(119.55, -207.07, -53.09, -30.65, 29399.01, 18587.87)" gradientUnits="userSpaceOnUse"><stop offset="0.15" stop-color="#00ffd9"/><stop offset="0.25" stop-color="#00fbd7"/><stop offset="0.36" stop-color="#01edd2"/><stop offset="0.48" stop-color="#01d7c8"/><stop offset="0.6" stop-color="#02b9bc"/><stop offset="0.72" stop-color="#0491ab"/><stop offset="0.84" stop-color="#056197"/><stop offset="0.88" stop-color="#064e8f"/><stop offset="1" stop-color="#09006e"/></linearGradient><linearGradient id="linear-gradient-2" x1="5.17" y1="562.63" x2="6.15" y2="562.63" xlink:href="#linear-gradient"/></defs><path id="Rectangle" class="cls-1" d="M165.43,179.11l88.9-154A30.66,30.66,0,0,1,296.2,13.91h0a30.66,30.66,0,0,1,11.22,41.88l-88.9,154A30.65,30.65,0,0,1,176.65,221h0A30.65,30.65,0,0,1,165.43,179.11Z" transform="translate(-12.12 -9.8)"/><path id="MXC" class="cls-2" d="M199.62,341.35l-.6-95.7-45.6,76.8h-31.2L76.62,249v92.4H12.12v-210h58.2l68.4,111.9,66.6-111.9h58.2l.6,210Zm231.6,0-36.3-56.1-35.4,56.1h-80.7l75.9-105.9-73.2-104.1H361l35.7,52.8,34.8-52.8h76.2l-72.9,101.4,77.4,108.6Zm196.8,4.8q-33.3,0-60-13.95a104.29,104.29,0,0,1-41.85-39Q511,268.15,511,236.35t15.15-56.85a104.29,104.29,0,0,1,41.85-39q26.7-14,60-14,30.6,0,54.6,10.8a101.34,101.34,0,0,1,39.6,31.2l-44.7,39.9q-19.5-24.6-45.9-24.6-22.2,0-35.7,14.25t-13.5,38.25q0,24,13.5,38.25t35.7,14.25q26.4,0,45.9-24.6l44.7,39.9a101.34,101.34,0,0,1-39.6,31.2Q658.62,346.15,628,346.15Z" transform="translate(-12.12 -9.8)"/><path id="Rectangle-2" data-name="Rectangle" class="cls-3" d="M135.43,230.11l88.9-154a30.67,30.67,0,0,1,41.88-11.22h0a30.66,30.66,0,0,1,11.22,41.87l-88.9,154A30.66,30.66,0,0,1,146.65,272h0A30.65,30.65,0,0,1,135.43,230.11Z" transform="translate(-12.12 -9.8)"/></svg>